<svg width="24" height="24" fill="none" xmlns="http://www.w3.org/2000/svg"><g clip-path="url(#clip0_301_163)" fill="#fff"><path d="M10.5 7.636v8.728h3V7.636h-3zm-9 5.046a1.5 1.5 0 100-3 1.5 1.5 0 000 3z"/><path d="M1.5 14.318a1.5 1.5 0 100-3 1.5 1.5 0 000 3z"/><path d="M3 11.182H0v1.636h3v-1.636zm19.5 3.136a1.5 1.5 0 100-3 1.5 1.5 0 000 3z"/><path d="M22.5 12.682a1.5 1.5 0 100-3 1.5 1.5 0 000 3z"/><path d="M21 12.818h3v-1.636h-3v1.636zM6.682 17.591a1.5 1.5 0 100-3 1.5 1.5 0 000 3z"/><path d="M6.682 19.228a1.5 1.5 0 100-3 1.5 1.5 0 000 3z"/><path d="M8.182 16.091h-3v1.636h3v-1.636zm-1.5-8.319a1.5 1.5 0 100-3 1.5 1.5 0 000 3zm0 5.318a1.5 1.5 0 100-3 1.5 1.5 0 000 3z"/><path d="M8.182 6.272h-3v5.353h3V6.272zm9.137 3.138a1.5 1.5 0 100-3 1.5 1.5 0 000 3z"/><path d="M17.319 7.772a1.5 1.5 0 100-3 1.5 1.5 0 000 3z"/><path d="M15.818 7.909h3V6.272h-3V7.91zM12 4.636a1.5 1.5 0 100-3 1.5 1.5 0 000 3z"/><path d="M12 3a1.5 1.5 0 100-3 1.5 1.5 0 000 3z"/><path d="M10.5 3.136h3V1.5h-3v1.636zM12 24a1.5 1.5 0 100-3 1.5 1.5 0 000 3z"/><path d="M12 22.364a1.5 1.5 0 100-3 1.5 1.5 0 000 3z"/><path d="M10.5 22.5h3v-1.636h-3V22.5zm6.819-3.272a1.5 1.5 0 100-3 1.5 1.5 0 000 3zm0-5.318a1.5 1.5 0 100-3 1.5 1.5 0 000 3z"/><path d="M15.818 17.727h3V12.41h-3v5.318zM12 9.137a1.5 1.5 0 100-3 1.5 1.5 0 000 3zm0 8.727a1.5 1.5 0 100-3 1.5 1.5 0 000 3z"/></g><defs><clipPath id="clip0_301_163"><path fill="#fff" d="M0 0h24v24H0z"/></clipPath></defs></svg>