<svg width="16" height="16" fill="none" xmlns="http://www.w3.org/2000/svg"><g clip-path="url(#clip0_301_467)"><path d="M7 5.091v5.818h2V5.091H7z" fill="#FAB908"/><path d="M1 8.455a1 1 0 100-2 1 1 0 000 2z" fill="#0066D9"/><path d="M1 9.546a1 1 0 100-2 1 1 0 000 2z" fill="#0066D9"/><path d="M2 7.455H0v1.09h2v-1.09z" fill="#0066D9"/><path d="M15 9.546a1 1 0 100-2 1 1 0 000 2z" fill="#4285F4"/><path d="M15 8.455a1 1 0 100-2 1 1 0 000 2z" fill="#4285F4"/><path d="M14 8.546h2V7.455h-2v1.09z" fill="#4285F4"/><path d="M4.454 11.727a1 1 0 100-2 1 1 0 000 2z" fill="#EA4335"/><path d="M4.454 12.818a1 1 0 100-2 1 1 0 000 2z" fill="#EA4335"/><path d="M5.454 10.727h-2v1.091h2v-1.09zm-1-5.545a1 1 0 100-2 1 1 0 000 2zm0 3.545a1 1 0 100-2 1 1 0 000 2z" fill="#EA4335"/><path d="M5.454 4.182h-2V7.75h2V4.182z" fill="#EA4335"/><path d="M11.546 6.273a1 1 0 100-2 1 1 0 000 2z" fill="#34A853"/><path d="M11.546 5.182a1 1 0 100-2 1 1 0 000 2z" fill="#34A853"/><path d="M10.545 5.273h2V4.182h-2v1.09z" fill="#34A853"/><path d="M8 3.091a1 1 0 100-2 1 1 0 000 2z" fill="#FAB908"/><path d="M8 2a1 1 0 100-2 1 1 0 000 2z" fill="#FAB908"/><path d="M7 2.09h2V1H7v1.09zM8 16a1 1 0 100-2 1 1 0 000 2z" fill="#FAB908"/><path d="M8 14.91a1 1 0 100-2 1 1 0 000 2z" fill="#FAB908"/><path d="M7 15h2v-1.09H7V15z" fill="#FAB908"/><path d="M11.546 12.818a1 1 0 100-2 1 1 0 000 2zm0-3.545a1 1 0 100-2 1 1 0 000 2z" fill="#34A853"/><path d="M10.545 11.818h2V8.273h-2v3.545z" fill="#34A853"/><path d="M8 6.091a1 1 0 100-2 1 1 0 000 2zm0 5.819a1 1 0 100-2 1 1 0 000 2z" fill="#FAB908"/></g><defs><clipPath id="clip0_301_467"><path fill="#fff" d="M0 0h16v16H0z"/></clipPath></defs></svg>