<svg width="24" height="24" fill="none" xmlns="http://www.w3.org/2000/svg"><path fill-rule="evenodd" clip-rule="evenodd" d="M4.458 4.735a2.914 2.914 0 00-2.775 2.72C1.591 8.879 1.5 10.628 1.5 12c0 1.373.091 3.122.183 4.544a2.914 2.914 0 002.775 2.72c2.151.108 5.226.236 7.542.236s5.39-.128 7.542-.235a2.914 2.914 0 002.775-2.72c.092-1.423.183-3.172.183-4.545 0-1.373-.091-3.122-.183-4.544a2.914 2.914 0 00-2.775-2.72C17.39 4.628 14.316 4.5 12 4.5s-5.39.129-7.542.235zM15.75 12l-6 3V9l6 3z" fill="#fff"/></svg>