<svg width="24" height="24" fill="none" xmlns="http://www.w3.org/2000/svg"><g fill="#000"><path d="M18.533 6.867a1.4 1.4 0 11-2.8 0 1.4 1.4 0 012.8 0z"/><path fill-rule="evenodd" clip-rule="evenodd" d="M12 16.666a4.667 4.667 0 100-9.333 4.667 4.667 0 000 9.333zm0-1.866a2.8 2.8 0 100-5.6 2.8 2.8 0 000 5.6z"/><path fill-rule="evenodd" clip-rule="evenodd" d="M2.667 11.627c0-3.137 0-4.705.61-5.903a5.6 5.6 0 012.447-2.447c1.198-.61 2.766-.61 5.903-.61h.746c3.137 0 4.705 0 5.903.61a5.6 5.6 0 012.447 2.447c.61 1.198.61 2.766.61 5.902v.747c0 3.136 0 4.705-.61 5.903a5.6 5.6 0 01-2.447 2.447c-1.198.61-2.766.61-5.903.61h-.746c-3.137 0-4.705 0-5.903-.61a5.6 5.6 0 01-2.447-2.447c-.61-1.198-.61-2.767-.61-5.903v-.746zm8.96-7.094h.746c1.6 0 2.686.002 3.526.07.819.067 1.237.188 1.53.337.702.358 1.273.93 1.63 1.632.15.292.27.71.338 1.528.068.84.07 1.928.07 3.527v.746c0 1.6-.002 2.686-.07 3.526-.067.819-.188 1.237-.337 1.53a3.734 3.734 0 01-1.632 1.63c-.292.15-.71.27-1.529.337-.84.07-1.927.07-3.526.07h-.746c-1.6 0-2.686 0-3.526-.07-.819-.067-1.237-.188-1.53-.336a3.733 3.733 0 01-1.63-1.632c-.15-.292-.27-.71-.338-1.529-.068-.84-.07-1.927-.07-3.526v-.746c0-1.6.002-2.686.07-3.527.067-.818.188-1.236.337-1.528A3.733 3.733 0 016.572 4.94c.292-.149.71-.27 1.529-.337.84-.068 1.927-.07 3.526-.07z"/></g></svg>