<svg width="292" height="292" fill="none" xmlns="http://www.w3.org/2000/svg"><path d="M216.063 148.116c-5.596 1.541-10.301 2.964-15.067 4.114-8.073 1.983-16.135 3.582-24.556 2.037-8.542-1.576-14.31-6.444-16.424-14.68-1.29-5.059-1.204-10.455-1.543-15.701-.122-2.052.333-4.172.6-7.243-3.37 3.097-5.979 5.57-8.688 7.932-6.596 5.801-12.961 11.875-19.908 17.198-9.483 7.343-18.683 5.814-25.731-3.981-2.761-3.843-4.609-8.399-6.833-12.664-.66-1.287-1.13-2.653-1.799-4.243-3.824 7.41-7.354 14.508-11.136 21.413-8.837 16.107-22.49 11.981-30.377 1.929-2.11-2.688-3.6-5.949-5.08-9.079-.92-2.126-.616-4.5 1.743-5.489 2.127-.92 3.737.523 4.9 2.367 1.174 1.805 2.237 3.71 3.583 5.343 1.578 1.907 3.196 3.825 5.119 5.39 5.416 4.391 9.905 3.988 14.014-1.672 2.909-3.989 5.244-8.424 7.599-12.769 2.192-4.042 4.202-8.216 6.212-12.391 1.061-2.137 2.203-4.254 4.862-4.393 3.052-.168 4.244 2.243 5.355 4.461 1.432 2.817 2.428 5.823 4.012 8.549 1.955 3.465 4 6.91 6.441 9.984 3.326 4.159 6.355 4.759 10.925 2.012 4.368-2.628 8.687-5.568 12.583-8.875 8.31-7.126 16.338-14.496 24.377-21.906 1.908-1.75 3.773-2.822 6.193-1.689 2.309 1.062 2.571 3.236 2.328 5.539-.443 4.101-1.069 8.241-1.301 12.353-.188 3.607-.317 7.315.151 10.875 1.229 9.515 5.859 13.619 15.385 14.371 7.162.58 14.21-.246 21.14-1.962 4.998-1.22 9.907-2.763 14.825-4.175 2.6-.756 5.292-1.532 7.291 1.085 1.858 2.495.775 5.057-.409 7.507-.52 1.028-1.192 1.975-1.823 2.932-1.302 1.904-2.504 3.919-3.988 5.691-10.946 13.248-9.14 26.909-1.241 40.619 1.463 2.524 3.727 4.606 5.698 6.828.965 1.106 2.295 1.961 3.108 3.158.602.841 1.12 2.349.723 3.065-.418.797-1.916 1.275-2.867 1.462-2.073.374-4.515-.506-6.106-1.686-3.142-2.349-6.252-4.991-8.552-8.114-5.121-6.896-7.853-14.903-9.167-23.408-1.118-7.251.944-13.82 4.762-19.856 2.544-3.909 5.371-7.574 8.667-12.238z" fill="#000"/></svg>