<svg width="126" height="122" fill="none" xmlns="http://www.w3.org/2000/svg"><path d="M59.542 59.29c.5-2 .791-3.625 1.333-5.208 5.417-16 14.125-30.25 24.042-43.792 1.166-1.583 2.625-3.083 4.25-4.083.875-.542 2.625-.458 3.625.083.75.417 1.291 2.042 1.125 2.959a16.336 16.336 0 01-1.792 5.125 2848.27 2848.27 0 01-17.417 31.25c-2.208 3.875-4.541 7.708-6.833 11.541a38.104 38.104 0 01-2.458 3.709c-.959 1.333-2.417 2.125-3.875 1.25-.959-.584-2-1-2-2.834zm59 62.043c-2-.333-4.334-.583-6.584-1.083-8.875-2-17.75-4-26.583-6.083-1.917-.459-3.792-1.25-5.5-2.167-2.292-1.208-3.083-2.917-2.708-4.792s1.875-3.041 4.5-3.083c1.791-.042 3.708 0 5.416.417a3054.341 3054.341 0 0133.584 8.708c1.25.333 2.541.917 3.5 1.75 2.416 2.042 1.666 5.25-1.417 6.042-1.208.291-2.583.166-4.208.291zM1.458 9.624c.167-1.958.584-3.916 1.084-5.833C3 2.083 4.167.874 6.042.708 7.625.583 9.333 2.166 9.583 4.249c.334 2.792.625 5.625.5 8.417-.375 8.417-.916 16.875-1.5 25.292-.208 2.791-.583 5.583-1.041 8.375-.167.958-.5 1.958-1.042 2.708-1.458 2.125-4.125 1.958-5.167-.333C.75 47.416.5 45.833.5 44.416c-.208-4.667.417-27.875.958-34.792z" fill="#CD4631"/></svg>