<svg width="284" height="340" fill="none" xmlns="http://www.w3.org/2000/svg"><path d="M132.023 228.897c1.532-5.598 2.711-10.371 4.154-15.056 2.416-7.954 5.156-15.703 10.784-22.156 5.715-6.54 12.845-9.015 21.007-6.629 5.008 1.474 9.605 4.302 14.289 6.688 1.827.943 3.418 2.416 5.922 4.214-.943-4.479-1.738-7.985-2.386-11.52-1.621-8.633-3.595-17.207-4.626-25.898-1.473-11.903 4.537-19.033 16.558-20.094 4.714-.412 9.575.324 14.378.59 1.444.088 2.858.383 4.567.618-4.42-7.071-8.721-13.729-12.728-20.506-9.34-15.821 1.178-25.456 13.847-27.106 3.388-.442 6.953-.059 10.401.266 2.298.294 4.183 1.767 3.83 4.301-.295 2.298-2.357 2.946-4.538 3.005-2.15.089-4.331.03-6.422.354-2.446.383-4.921.795-7.248 1.65-6.541 2.416-8.486 6.482-5.716 12.904 1.945 4.538 4.567 8.81 7.1 13.052 2.358 3.948 4.921 7.808 7.484 11.668 1.296 2.003 2.534 4.066 1.296 6.423-1.414 2.71-4.095 2.504-6.57 2.327-3.152-.206-6.246-.884-9.398-.913-3.978-.089-7.985-.089-11.874.442-5.274.736-7.336 3.034-7.307 8.367.03 5.097.354 10.312 1.208 15.35 1.886 10.784 4.125 21.449 6.394 32.144.53 2.534.501 4.685-1.709 6.187-2.092 1.444-4.095.56-5.952-.825-3.299-2.474-6.54-5.126-9.958-7.424-3.005-2.004-6.128-4.007-9.428-5.421-8.81-3.801-14.702-1.915-20.212 5.892-4.154 5.863-7.041 12.345-9.104 19.18-1.502 4.921-2.681 9.929-3.977 14.879-.678 2.622-1.385 5.333-4.655 5.716-3.094.324-4.744-1.915-6.246-4.184-.619-.972-1.09-2.033-1.591-3.064-.973-2.092-2.092-4.154-2.858-6.334-5.804-16.175-18.473-21.597-34.295-21.803-2.917-.029-5.863.855-8.78 1.414-1.443.266-2.858.973-4.301 1.061-1.031.088-2.593-.236-3.005-.943-.472-.766-.118-2.298.206-3.211.736-1.974 2.74-3.624 4.566-4.39 3.624-1.503 7.484-2.829 11.344-3.212 8.544-.883 16.823.855 24.807 4.066 6.806 2.74 11.402 7.867 14.643 14.231 2.063 4.184 3.771 8.485 6.099 13.7z" fill="#000"/></svg>