<svg width="105" height="105" fill="none" xmlns="http://www.w3.org/2000/svg"><path d="M89.925 62.343c-4.047-1.039-10.865-2.15-13.38-3.864-1.04-.711-.912-1.495-.73-2.042.183-.51 1.222-1.039 1.86-1.002 1.44.054 2.88.364 4.265.747 3.08.838 6.143 1.713 9.17 2.716 1.604.529 2.114 1.75 1.184 2.534-.546.456-1.057.911-2.37.911zM26.122 90.507c.183-.966.547-1.476 1.076-2.224 2.06-2.88 4.21-5.705 6.325-8.53a2.71 2.71 0 01.438-.475c.73-.62 1.55-1.349 2.497-.674.948.692.62 1.713.11 2.534a605.269 605.269 0 01-6.453 10.28c-.328.53-.894.985-1.459 1.259-1.403.674-2.643-.256-2.534-2.17zm45.555-.637c0 .82-.638 1.404-1.112 1.495-.638.127-1.185.018-2.096-.602-.31-.2-.492-.693-.675-1.075-1.33-2.88-2.68-5.743-3.974-8.64-.328-.712-.656-1.532-.601-2.28.054-.674.474-1.64 1.02-1.877.53-.237 1.24-.31 2.079.51.31.292.601.784.802 1.24 1.312 3.044 2.625 6.088 3.9 9.15.238.584.384 1.222.657 2.079zM13.818 64.75c-.839-.237-1.386-.638-1.513-1.185-.164-.692.182-1.622.583-2.279.31-.492 1.02-.802 1.622-1.002a376.312 376.312 0 019.079-2.917c.51-.164 1.166-.218 1.658-.054.802.273 1.149.911.493 1.677-.365.437-.784.893-1.276 1.13a372.087 372.087 0 01-8.586 4.138c-.529.237-1.24.747-2.06.492zm61.76-31.281c-.4-.164-.747-.82-.766-1.258-.018-.601.165-1.33.53-1.823 1.695-2.333 3.48-4.63 5.25-6.909.254-.346.6-.62.947-.893.784-.601 1.805-1.13 2.498-.219.4.529.528 1.878.145 2.334-2.333 2.843-4.849 5.56-7.346 8.276-.2.237-.602.62-1.258.492zm-58.443-3.956c1.021.31 1.805.492 2.552.766a394.71 394.71 0 016.49 2.406c.602.237 1.24.474 1.732.857.346.273.729.966.601 1.221-.218.42-.547.948-1.294.893-.31-.018-.71-.036-1.057-.127-2.443-.657-4.886-1.276-7.31-2.006-.82-.237-1.677-.583-2.333-1.112-.474-.382-.912-1.24-.784-1.75.11-.474.51-1.148 1.403-1.148zm33.36-7.547c-.018.219-.037.438-.11.638-.31.893-.51 1.896-1.768 1.805-1.33-.091-1.385-1.185-1.367-2.078.055-2.151.255-4.302.42-6.472.072-.784.163-1.586.382-2.333.219-.766.529-1.55 1.586-1.422.985.128 1.313.784 1.33 1.659 0 .948-.29 6.417-.473 8.203z" fill="#CD4631"/></svg>