<svg width="25" height="24" fill="none" xmlns="http://www.w3.org/2000/svg"><g fill="#000" clip-path="url(#clip0_301_2643)"><path d="M11 7.636v8.727h3V7.636h-3zm-9 5.046a1.5 1.5 0 100-3 1.5 1.5 0 000 3z"/><path d="M2 14.318a1.5 1.5 0 100-3 1.5 1.5 0 000 3z"/><path d="M3.5 11.182h-3v1.636h3v-1.636zM23 14.318a1.5 1.5 0 100-3 1.5 1.5 0 000 3z"/><path d="M23 12.682a1.5 1.5 0 100-3 1.5 1.5 0 000 3z"/><path d="M21.5 12.819h3v-1.637h-3v1.636zM7.182 17.591a1.5 1.5 0 100-3 1.5 1.5 0 000 3z"/><path d="M7.182 19.228a1.5 1.5 0 100-3 1.5 1.5 0 000 3z"/><path d="M8.682 16.091h-3v1.637h3V16.09zm-1.5-8.319a1.5 1.5 0 100-3 1.5 1.5 0 000 3zm0 5.318a1.5 1.5 0 100-3 1.5 1.5 0 000 3z"/><path d="M8.682 6.272h-3v5.353h3V6.272zm9.137 3.138a1.5 1.5 0 100-3 1.5 1.5 0 000 3z"/><path d="M17.819 7.772a1.5 1.5 0 100-3 1.5 1.5 0 000 3z"/><path d="M16.318 7.909h3V6.272h-3V7.91zM12.5 4.636a1.5 1.5 0 100-3 1.5 1.5 0 000 3z"/><path d="M12.5 3a1.5 1.5 0 100-3 1.5 1.5 0 000 3z"/><path d="M11 3.136h3V1.5h-3v1.636zM12.5 24a1.5 1.5 0 100-3 1.5 1.5 0 000 3z"/><path d="M12.5 22.364a1.5 1.5 0 100-3 1.5 1.5 0 000 3z"/><path d="M11 22.5h3v-1.636h-3V22.5zm6.819-3.272a1.5 1.5 0 100-3 1.5 1.5 0 000 3zm0-5.318a1.5 1.5 0 100-3 1.5 1.5 0 000 3z"/><path d="M16.318 17.727h3v-5.318h-3v5.318zM12.5 9.136a1.5 1.5 0 100-3 1.5 1.5 0 000 3zm0 8.728a1.5 1.5 0 100-3 1.5 1.5 0 000 3z"/></g><defs><clipPath id="clip0_301_2643"><path fill="#fff" transform="translate(.5)" d="M0 0h24v24H0z"/></clipPath></defs></svg>