<svg width="25" height="24" fill="none" xmlns="http://www.w3.org/2000/svg"><g clip-path="url(#clip0_301_2672)"><path d="M12.5 0a12 12 0 100 24 12 12 0 000-24zm5.507 17.306a.748.748 0 01-1.035.249c-2.815-1.724-6.359-2.107-10.534-1.16a.74.74 0 01-.902-.846.747.747 0 01.567-.609c4.568-1.044 8.494-.594 11.655 1.34a.747.747 0 01.249 1.026zm1.465-3.266a.958.958 0 01-1.283.306 15.735 15.735 0 00-11.952-1.398.957.957 0 11-.546-1.79 17.487 17.487 0 0113.475 1.599.958.958 0 01.306 1.283zm.125-3.4C15.766 8.342 9.359 8.13 5.662 9.251a1.12 1.12 0 11-.651-2.145c4.242-1.283 11.281-1.034 15.735 1.6a1.12 1.12 0 01-1.15 1.915v.02z" fill="#000"/></g><defs><clipPath id="clip0_301_2672"><path fill="#fff" transform="translate(.5)" d="M0 0h24v24H0z"/></clipPath></defs></svg>