<svg width="25" height="24" fill="none" xmlns="http://www.w3.org/2000/svg"><path fill-rule="evenodd" clip-rule="evenodd" d="M4.958 4.735a2.914 2.914 0 00-2.775 2.72C2.091 8.879 2 10.628 2 12c0 1.373.091 3.122.183 4.544a2.914 2.914 0 002.775 2.72c2.151.108 5.226.236 7.542.236s5.39-.128 7.542-.235a2.914 2.914 0 002.775-2.72C22.909 15.121 23 13.372 23 12c0-1.373-.091-3.122-.183-4.544a2.914 2.914 0 00-2.775-2.72C17.89 4.628 14.816 4.5 12.5 4.5s-5.39.129-7.542.235zM16.25 12l-6 3V9l6 3z" fill="#000"/></svg>