<svg width="79" height="78" fill="none" xmlns="http://www.w3.org/2000/svg"><path d="M11.726 26.948c3.643-4.28 7.638-8.369 12.052-11.849 3.074-2.424 4.13-2.546 5.823-3.006.46-.122.867-.406 1.26-.69C47.34-.23 68.343 8.016 72.406 28.545c2.695 13.623-4.252 27.15-16.196 32.676-.19.095-.474.122-.568.27-2.37 3.711-7.19 5.147-10.13 5.878-.595.216-1.056.84-1.597 1.246-.42.311-.84.65-1.314.866-15.532 7.204-32.23-2.437-35.885-18.39-.515-2.247-2.776-15.816 5.01-24.144zm32.351 33.407c5.539-.027 9.154-.934 12.39-2.708 15.574-8.545 17.903-31.755 4.199-43.09-7.854-6.486-17.902-7.583-26.732-1.367-10.494 7.38-14.3 22.506-8.422 33.935 4.224 8.22 10.928 12.756 18.565 13.23zm5.295 3.508c.677-.244.772-.42.663-.502 0 0-.284 0-.758.014-12.187.92-21.355-3.927-26.785-14.855-5.309-10.671-4.022-21.152 2.248-31.187a5.174 5.174 0 00-1.273.88c-8.45 7.652-10.942 20.611-6.067 31.688 4.496 10.224 13.934 16.29 24.551 15.532 2.492-.176 4.943-1.029 7.42-1.57zm-35.79-35.128c.013-.392-.353.095-.407.163-.19.257-.38.528-.542.799-2.234 3.765-3.629 7.84-3.818 12.214-.447 9.967 3.046 18.228 11.483 23.86 5.606 3.752 11.835 4.524 18.349 2.493-9.52-.962-16.94-5.376-21.951-13.529-5.01-8.125-5.81-16.845-3.115-26z" fill="#000"/><path d="M54.369 37.416c1.869.067 2.478 1.042 1.869 2.803-1.517 4.333-5.783 6.446-10.13 4.929-2.572-.907-4.59-2.56-5.985-4.916-1.07-1.814-.596-2.857 1.503-2.992 2.194-.15 10.698.094 12.743.176zm-.42 2.112H42.886c3.737 4.347 9.262 4.428 11.063 0z" fill="#000"/><path d="M39.134 29.738c.014 2.112-2.017 4.035-4.238 4.022-1.937-.014-3.29-1.76-3.304-3.616-.027-1.855 1.868-3.683 3.954-3.737 2.004-.068 3.588 1.394 3.588 3.33zm-4.062-1.34c-1.002.162-1.314 1.11-1.233 1.827.109 1.043.894 1.3 1.382 1.314.46.013 1.368-.447 1.557-1.34.244-.908-.27-2.14-1.706-1.802z" fill="#CD4631"/><path d="M65.012 30.306c-.027 2.045-1.476 3.548-3.412 3.535-2.086-.014-3.589-1.706-3.52-3.968.053-1.963 1.516-3.48 3.33-3.44 1.883.055 3.63 1.923 3.602 3.873zm-1.868-.054c0-1.043-.555-1.747-1.422-1.747a1.45 1.45 0 00-1.422 1.517c0 1.936 1.422 1.828 1.422 1.828.758-.027 1.422-.338 1.422-1.598z" fill="#81ADC8"/></svg>